<?xml version="1.0" encoding="utf-8"?>
<!-- Generator: Adobe Illustrator 15.0.0, SVG Export Plug-In . SVG Version: 6.00 Build 0)  -->
<!DOCTYPE svg PUBLIC "-//W3C//DTD SVG 1.1//EN" "http://www.w3.org/Graphics/SVG/1.1/DTD/svg11.dtd">
<svg version="1.1" id="图形" xmlns="http://www.w3.org/2000/svg" xmlns:xlink="http://www.w3.org/1999/xlink" x="0px" y="0px"
	 width="1024px" height="1024px" viewBox="0 0 1024 1024" enable-background="new 0 0 1024 1024" xml:space="preserve">
<path fill="#FFFFFF" d="M693.76,821.76C638.783,848.576,577.28,864,512,864c-63.297,0-123.137-14.592-176.832-39.872l-41.792,43.521
	C260.096,902.336,284.672,960,332.736,960H704c47.231,0,70.848-57.152,37.504-90.496L693.76,821.76z"/>
<path fill="#FFFFFF" d="M512,288c88.256,0,160,71.808,160,160c0,88.192-71.744,160-160,160c-88.257,0-160-71.808-160-160
	C352,359.808,423.743,288,512,288 M512,96c-194.368,0-352,157.568-352,352c0,194.432,157.632,352,352,352
	c194.432,0,352-157.568,352-352C864,253.568,706.432,96,512,96L512,96z"/>
</svg>
